<svg version="1.1" xmlns="http://www.w3.org/2000/svg" xmlns:xlink="http://www.w3.org/1999/xlink" width="114.10802" height="43.82413" viewBox="0,0,114.10802,43.82413"><g transform="translate(-95.3214,-174.50684)"><g data-paper-data="{&quot;isPaintingLayer&quot;:true}" fill-rule="nonzero" stroke-linejoin="miter" stroke-miterlimit="10" stroke-dasharray="" stroke-dashoffset="0" style="mix-blend-mode: normal"><path d="" fill="#ff0000" stroke="none" stroke-width="0.5" stroke-linecap="butt"/><path d="M207.10053,178.92574l-0.54222,36.87119l-14.96756,-0.26332l-94.01935,-0.82113v-37.95564" fill="none" stroke="#ff0000" stroke-width="4.5" stroke-linecap="round"/><path d="M204.42942,191.1524c0,-1.38071 1.11929,-2.5 2.5,-2.5c1.38071,0 2.5,1.11929 2.5,2.5c0,1.38071 -1.11929,2.5 -2.5,2.5c-1.38071,0 -2.5,-1.11929 -2.5,-2.5z" fill="#ffe866" stroke="none" stroke-width="0.5" stroke-linecap="butt"/><path d="M204.42941,197.05981c0,-1.38071 1.11929,-2.5 2.5,-2.5c1.38071,0 2.5,1.11929 2.5,2.5c0,1.38071 -1.11929,2.5 -2.5,2.5c-1.38071,0 -2.5,-1.11929 -2.5,-2.5z" fill="#ffe866" stroke="none" stroke-width="0.5" stroke-linecap="butt"/><path d="M204.42941,202.96726c0,-1.38071 1.11929,-2.5 2.5,-2.5c1.38071,0 2.5,1.11929 2.5,2.5c0,1.38071 -1.11929,2.5 -2.5,2.5c-1.38071,0 -2.5,-1.11929 -2.5,-2.5z" fill="#ffe866" stroke="none" stroke-width="0.5" stroke-linecap="butt"/><path d="M204.40367,208.99467c0,-1.38071 1.11929,-2.5 2.5,-2.5c1.38071,0 2.5,1.11929 2.5,2.5c0,1.38071 -1.11929,2.5 -2.5,2.5c-1.38071,0 -2.5,-1.11929 -2.5,-2.5z" fill="#ffe866" stroke="none" stroke-width="0.5" stroke-linecap="butt"/><path d="M204.19002,214.7628c0,-1.38071 1.11929,-2.5 2.5,-2.5c1.38071,0 2.5,1.11929 2.5,2.5c0,1.38071 -1.11929,2.5 -2.5,2.5c-1.38071,0 -2.5,-1.11929 -2.5,-2.5z" fill="#ffe866" stroke="none" stroke-width="0.5" stroke-linecap="butt"/><path d="M198.63551,215.83098c0,-1.38071 1.11929,-2.5 2.5,-2.5c1.38071,0 2.5,1.11929 2.5,2.5c0,1.38071 -1.11929,2.5 -2.5,2.5c-1.38071,0 -2.5,-1.11929 -2.5,-2.5z" fill="#ffe866" stroke="none" stroke-width="0.5" stroke-linecap="butt"/><path d="M193.08099,215.61734c0,-1.38071 1.11929,-2.5 2.5,-2.5c1.38071,0 2.5,1.11929 2.5,2.5c0,1.38071 -1.11929,2.5 -2.5,2.5c-1.38071,0 -2.5,-1.11929 -2.5,-2.5z" fill="#ffe866" stroke="none" stroke-width="0.5" stroke-linecap="butt"/><path d="M187.52648,215.61734c0,-1.38071 1.11929,-2.5 2.5,-2.5c1.38071,0 2.5,1.11929 2.5,2.5c0,1.38071 -1.11929,2.5 -2.5,2.5c-1.38071,0 -2.5,-1.11929 -2.5,-2.5z" fill="#ffe866" stroke="none" stroke-width="0.5" stroke-linecap="butt"/><path d="M181.75832,215.40369c0,-1.38071 1.11929,-2.5 2.5,-2.5c1.38071,0 2.5,1.11929 2.5,2.5c0,1.38071 -1.11929,2.5 -2.5,2.5c-1.38071,0 -2.5,-1.11929 -2.5,-2.5z" fill="#ffe866" stroke="none" stroke-width="0.5" stroke-linecap="butt"/></g></g></svg>