<svg version="1.1" xmlns="http://www.w3.org/2000/svg" xmlns:xlink="http://www.w3.org/1999/xlink" width="114.10803" height="43.57943" viewBox="0,0,114.10803,43.57943"><g transform="translate(-95.32138,-174.5068)"><g data-paper-data="{&quot;isPaintingLayer&quot;:true}" fill-rule="nonzero" stroke-linejoin="miter" stroke-miterlimit="10" stroke-dasharray="" stroke-dashoffset="0" style="mix-blend-mode: normal"><path d="" fill="#ff0000" stroke="none" stroke-width="0.5" stroke-linecap="butt"/><path d="M207.10051,178.92571l-0.54222,36.87119l-14.96756,-0.26332l-94.01935,-0.82113v-37.95564" fill="none" stroke="#ff0000" stroke-width="4.5" stroke-linecap="round"/><path d="M204.42941,191.15237c0,-1.38071 1.11929,-2.5 2.5,-2.5c1.38071,0 2.5,1.11929 2.5,2.5c0,1.38071 -1.11929,2.5 -2.5,2.5c-1.38071,0 -2.5,-1.11929 -2.5,-2.5z" fill="#ffe866" stroke="none" stroke-width="0.5" stroke-linecap="butt"/><path d="M204.4294,197.05978c0,-1.38071 1.11929,-2.5 2.5,-2.5c1.38071,0 2.5,1.11929 2.5,2.5c0,1.38071 -1.11929,2.5 -2.5,2.5c-1.38071,0 -2.5,-1.11929 -2.5,-2.5z" fill="#ffe866" stroke="none" stroke-width="0.5" stroke-linecap="butt"/><path d="M204.4294,202.96721c0,-1.38071 1.11929,-2.5 2.5,-2.5c1.38071,0 2.5,1.11929 2.5,2.5c0,1.38071 -1.11929,2.5 -2.5,2.5c-1.38071,0 -2.5,-1.11929 -2.5,-2.5z" fill="#ffe866" stroke="none" stroke-width="0.5" stroke-linecap="butt"/></g></g></svg>