<svg version="1.1" xmlns="http://www.w3.org/2000/svg" xmlns:xlink="http://www.w3.org/1999/xlink" width="114.10802" height="43.82414" viewBox="0,0,114.10802,43.82414"><g transform="translate(-95.3214,-174.50685)"><g data-paper-data="{&quot;isPaintingLayer&quot;:true}" fill-rule="nonzero" stroke-linejoin="miter" stroke-miterlimit="10" stroke-dasharray="" stroke-dashoffset="0" style="mix-blend-mode: normal"><path d="" fill="#ff0000" stroke="none" stroke-width="0.5" stroke-linecap="butt"/><path d="M207.10054,178.92576l-0.54222,36.87119l-14.96756,-0.26332l-94.01935,-0.82113v-37.95564" fill="none" stroke="#ff0000" stroke-width="4.5" stroke-linecap="round"/><path d="M204.42943,191.15242c0,-1.38071 1.11929,-2.5 2.5,-2.5c1.38071,0 2.5,1.11929 2.5,2.5c0,1.38071 -1.11929,2.5 -2.5,2.5c-1.38071,0 -2.5,-1.11929 -2.5,-2.5z" fill="#ffe866" stroke="none" stroke-width="0.5" stroke-linecap="butt"/><path d="M204.42942,197.05983c0,-1.38071 1.11929,-2.5 2.5,-2.5c1.38071,0 2.5,1.11929 2.5,2.5c0,1.38071 -1.11929,2.5 -2.5,2.5c-1.38071,0 -2.5,-1.11929 -2.5,-2.5z" fill="#ffe866" stroke="none" stroke-width="0.5" stroke-linecap="butt"/><path d="M204.42942,202.96728c0,-1.38071 1.11929,-2.5 2.5,-2.5c1.38071,0 2.5,1.11929 2.5,2.5c0,1.38071 -1.11929,2.5 -2.5,2.5c-1.38071,0 -2.5,-1.11929 -2.5,-2.5z" fill="#ffe866" stroke="none" stroke-width="0.5" stroke-linecap="butt"/><path d="M204.40368,208.99469c0,-1.38071 1.11929,-2.5 2.5,-2.5c1.38071,0 2.5,1.11929 2.5,2.5c0,1.38071 -1.11929,2.5 -2.5,2.5c-1.38071,0 -2.5,-1.11929 -2.5,-2.5z" fill="#ffe866" stroke="none" stroke-width="0.5" stroke-linecap="butt"/><path d="M204.19003,214.76282c0,-1.38071 1.11929,-2.5 2.5,-2.5c1.38071,0 2.5,1.11929 2.5,2.5c0,1.38071 -1.11929,2.5 -2.5,2.5c-1.38071,0 -2.5,-1.11929 -2.5,-2.5z" fill="#ffe866" stroke="none" stroke-width="0.5" stroke-linecap="butt"/><path d="M198.63552,215.831c0,-1.38071 1.11929,-2.5 2.5,-2.5c1.38071,0 2.5,1.11929 2.5,2.5c0,1.38071 -1.11929,2.5 -2.5,2.5c-1.38071,0 -2.5,-1.11929 -2.5,-2.5z" fill="#ffe866" stroke="none" stroke-width="0.5" stroke-linecap="butt"/><path d="M193.081,215.61736c0,-1.38071 1.11929,-2.5 2.5,-2.5c1.38071,0 2.5,1.11929 2.5,2.5c0,1.38071 -1.11929,2.5 -2.5,2.5c-1.38071,0 -2.5,-1.11929 -2.5,-2.5z" fill="#ffe866" stroke="none" stroke-width="0.5" stroke-linecap="butt"/><path d="M187.52649,215.61736c0,-1.38071 1.11929,-2.5 2.5,-2.5c1.38071,0 2.5,1.11929 2.5,2.5c0,1.38071 -1.11929,2.5 -2.5,2.5c-1.38071,0 -2.5,-1.11929 -2.5,-2.5z" fill="#ffe866" stroke="none" stroke-width="0.5" stroke-linecap="butt"/><path d="M181.75833,215.40371c0,-1.38071 1.11929,-2.5 2.5,-2.5c1.38071,0 2.5,1.11929 2.5,2.5c0,1.38071 -1.11929,2.5 -2.5,2.5c-1.38071,0 -2.5,-1.11929 -2.5,-2.5z" fill="#ffe866" stroke="none" stroke-width="0.5" stroke-linecap="butt"/><path d="M175.56291,215.4037c0,-1.38071 1.11929,-2.5 2.5,-2.5c1.38071,0 2.5,1.11929 2.5,2.5c0,1.38071 -1.11929,2.5 -2.5,2.5c-1.38071,0 -2.5,-1.11929 -2.5,-2.5z" fill="#ffe866" stroke="none" stroke-width="0.5" stroke-linecap="butt"/><path d="M169.58111,215.40369c0,-1.38071 1.11929,-2.5 2.5,-2.5c1.38071,0 2.5,1.11929 2.5,2.5c0,1.38071 -1.11929,2.5 -2.5,2.5c-1.38071,0 -2.5,-1.11929 -2.5,-2.5z" fill="#ffe866" stroke="none" stroke-width="0.5" stroke-linecap="butt"/></g></g></svg>